<svg width="70" height="70" viewBox="0 0 40 40" fill="none" xmlns="http://www.w3.org/2000/svg"><path d="M26.67 1.03H12.3c-1.14 0-2.05.91-2.05 2.05v14.36c0 1.13.91 2.05 2.05 2.05h14.36c1.13 0 2.05-.92 2.05-2.05V3.08c0-1.14-.92-2.05-2.05-2.05z" stroke="#2000E5" stroke-width="2" stroke-linecap="round" stroke-linejoin="round"/><path d="M26.67 1.03H12.3c-1.14 0-2.05.91-2.05 2.05v14.36c0 1.13.91 2.05 2.05 2.05h14.36c1.13 0 2.05-.92 2.05-2.05V3.08c0-1.14-.92-2.05-2.05-2.05z" stroke="url(#paint0_linear)" stroke-width="2" stroke-linecap="round" stroke-linejoin="round"/><path d="M15.9 8.2a1.54 1.54 0 100-3.07 1.54 1.54 0 000 3.08z" stroke="#2000E5" stroke-width="2" stroke-linecap="round" stroke-linejoin="round"/><path d="M15.9 8.2a1.54 1.54 0 100-3.07 1.54 1.54 0 000 3.08z" stroke="url(#paint1_linear)" stroke-width="2" stroke-linecap="round" stroke-linejoin="round"/><path d="M28.72 13.33l-5.13-5.12-11.28 11.28" stroke="#2000E5" stroke-width="2" stroke-linecap="round" stroke-linejoin="round"/><path d="M28.72 13.33l-5.13-5.12-11.28 11.28" stroke="url(#paint2_linear)" stroke-width="2" stroke-linecap="round" stroke-linejoin="round"/><path d="M4.1 37.95a3.08 3.08 0 110-6.16 3.08 3.08 0 010 6.16z" stroke="#2000E5" stroke-width="2" stroke-linecap="round" stroke-linejoin="round"/><path d="M4.1 37.95a3.08 3.08 0 110-6.16 3.08 3.08 0 010 6.16z" stroke="url(#paint3_linear)" stroke-width="2" stroke-linecap="round" stroke-linejoin="round"/><path d="M31.28 11.28h1.54a2.05 2.05 0 012.05 2.05v15.39" stroke="#2000E5" stroke-width="2" stroke-linecap="round" stroke-linejoin="round"/><path d="M31.28 11.28h1.54a2.05 2.05 0 012.05 2.05v15.39" stroke="url(#paint4_linear)" stroke-width="2" stroke-linecap="round" stroke-linejoin="round"/><path d="M7.7 11.28H6.14a2.05 2.05 0 00-2.05 2.05v15.39" stroke="#2000E5" stroke-width="2" stroke-linecap="round" stroke-linejoin="round"/><path d="M7.7 11.28H6.14a2.05 2.05 0 00-2.05 2.05v15.39" stroke="url(#paint5_linear)" stroke-width="2" stroke-linecap="round" stroke-linejoin="round"/><path d="M19.49 22.05v6.67" stroke="#2000E5" stroke-width="2" stroke-linecap="round" stroke-linejoin="round"/><path d="M19.49 22.05v6.67" stroke="url(#paint6_linear)" stroke-width="2" stroke-linecap="round" stroke-linejoin="round"/><path stroke="#2000E5" stroke-width="2" d="M16.41 31.79h6.15v6.15h-6.15z"/><path stroke="url(#paint7_linear)" stroke-width="2" d="M16.41 31.79h6.15v6.15h-6.15z"/><path d="M34.87 32.82l3.11 5.39h-6.22l3.11-5.39z" stroke="#2000E5" stroke-width="2"/><path d="M34.87 32.82l3.11 5.39h-6.22l3.11-5.39z" stroke="url(#paint8_linear)" stroke-width="2"/><defs><linearGradient id="paint0_linear" x1="30.11" y1="1.03" x2="9" y2="1.44" gradientUnits="userSpaceOnUse"><stop stop-color="#fff" stop-opacity=".1"/><stop offset="1" stop-color="#7100C9"/></linearGradient><linearGradient id="paint1_linear" x1="17.67" y1="5.13" x2="14.15" y2="5.2" gradientUnits="userSpaceOnUse"><stop stop-color="#fff" stop-opacity=".1"/><stop offset="1" stop-color="#7100C9"/></linearGradient><linearGradient id="paint2_linear" x1="29.95" y1="8.21" x2="11.2" y2="8.74" gradientUnits="userSpaceOnUse"><stop stop-color="#fff" stop-opacity=".1"/><stop offset="1" stop-color="#7100C9"/></linearGradient><linearGradient id="paint3_linear" x1=".56" y1="31.79" x2="7.6" y2="31.93" gradientUnits="userSpaceOnUse"><stop stop-color="#fff" stop-opacity=".1"/><stop offset="1" stop-color="#7100C9"/></linearGradient><linearGradient id="paint4_linear" x1="35.14" y1="11.28" x2="31.04" y2="11.3" gradientUnits="userSpaceOnUse"><stop stop-color="#fff" stop-opacity=".1"/><stop offset="1" stop-color="#7100C9"/></linearGradient><linearGradient id="paint5_linear" x1="3.83" y1="11.28" x2="7.94" y2="11.3" gradientUnits="userSpaceOnUse"><stop stop-color="#fff" stop-opacity=".1"/><stop offset="1" stop-color="#7100C9"/></linearGradient><linearGradient id="paint6_linear" x1="20.56" y1="22.05" x2="19.42" y2="22.05" gradientUnits="userSpaceOnUse"><stop stop-color="#fff" stop-opacity=".1"/><stop offset="1" stop-color="#7100C9"/></linearGradient><linearGradient id="paint7_linear" x1="23.03" y1="31.79" x2="15.99" y2="31.93" gradientUnits="userSpaceOnUse"><stop stop-color="#fff" stop-opacity=".1"/><stop offset="1" stop-color="#7100C9"/></linearGradient><linearGradient id="paint8_linear" x1="39" y1="32.82" x2="30.79" y2="32.98" gradientUnits="userSpaceOnUse"><stop stop-color="#fff" stop-opacity=".1"/><stop offset="1" stop-color="#7100C9"/></linearGradient></defs></svg>