<svg width="70" height="70" viewBox="0 0 40 40" fill="none" xmlns="http://www.w3.org/2000/svg"><path d="M4.1 37.95a3.08 3.08 0 110-6.16 3.08 3.08 0 010 6.16z" stroke="#2000E5" stroke-width="2" stroke-linecap="round" stroke-linejoin="round"/><path d="M4.1 37.95a3.08 3.08 0 110-6.16 3.08 3.08 0 010 6.16z" stroke="url(#paint0_linear)" stroke-width="2" stroke-linecap="round" stroke-linejoin="round"/><path d="M35 29.5V14c0-.54-.12-1.12-.5-1.5-.38-.38-.96-.5-1.5-.5h-1" stroke="#2000E5" stroke-width="2" stroke-linecap="round" stroke-linejoin="round"/><path d="M35 29.5V14c0-.54-.12-1.12-.5-1.5-.38-.38-.96-.5-1.5-.5h-1" stroke="url(#paint1_linear)" stroke-width="2" stroke-linecap="round" stroke-linejoin="round"/><path d="M10 8H6.05A2.05 2.05 0 004 10.05V29" stroke="#2000E5" stroke-width="2" stroke-linecap="round" stroke-linejoin="round"/><path d="M10 8H6.05A2.05 2.05 0 004 10.05V29" stroke="url(#paint2_linear)" stroke-width="2" stroke-linecap="round" stroke-linejoin="round"/><path d="M10 16.5H7.5v9h11.99V29" stroke="#2000E5" stroke-width="2" stroke-linecap="round" stroke-linejoin="round"/><path d="M10 16.5H7.5v9h11.99V29" stroke="url(#paint3_linear)" stroke-width="2" stroke-linecap="round" stroke-linejoin="round"/><path stroke="#2000E5" stroke-width="2" d="M16.41 31.79h6.15v6.15h-6.15z"/><path stroke="url(#paint4_linear)" stroke-width="2" d="M16.41 31.79h6.15v6.15h-6.15z"/><path d="M35 33l3 5h-6l3-5z" stroke="#2000E5" stroke-width="2"/><path d="M35 33l3 5h-6l3-5z" stroke="url(#paint5_linear)" stroke-width="2"/><path d="M23 1h-8a2 2 0 00-2 2v16a2 2 0 002 2h12a2 2 0 002-2V7l-6-6z" stroke="#2000E5" stroke-width="2" stroke-linecap="round" stroke-linejoin="round"/><path d="M23 1h-8a2 2 0 00-2 2v16a2 2 0 002 2h12a2 2 0 002-2V7l-6-6z" stroke="url(#paint6_linear)" stroke-width="2" stroke-linecap="round" stroke-linejoin="round"/><path d="M23 1v6h6" stroke="#2000E5" stroke-width="2" stroke-linecap="round" stroke-linejoin="round"/><path d="M23 1v6h6" stroke="url(#paint7_linear)" stroke-width="2" stroke-linecap="round" stroke-linejoin="round"/><path d="M25 12h-8" stroke="#2000E5" stroke-width="2" stroke-linecap="round" stroke-linejoin="round"/><path d="M25 12h-8" stroke="url(#paint8_linear)" stroke-width="2" stroke-linecap="round" stroke-linejoin="round"/><path d="M25 16h-8" stroke="#2000E5" stroke-width="2" stroke-linecap="round" stroke-linejoin="round"/><path d="M25 16h-8" stroke="url(#paint9_linear)" stroke-width="2" stroke-linecap="round" stroke-linejoin="round"/><path d="M19 8h-2" stroke="#2000E5" stroke-width="2" stroke-linecap="round" stroke-linejoin="round"/><path d="M19 8h-2" stroke="url(#paint10_linear)" stroke-width="2" stroke-linecap="round" stroke-linejoin="round"/><defs><linearGradient id="paint0_linear" x1=".56" y1="31.79" x2="7.6" y2="31.93" gradientUnits="userSpaceOnUse"><stop stop-color="#fff" stop-opacity=".1"/><stop offset="1" stop-color="#7100C9"/></linearGradient><linearGradient id="paint1_linear" x1="35.23" y1="12" x2="31.8" y2="12.01" gradientUnits="userSpaceOnUse"><stop stop-color="#fff" stop-opacity=".1"/><stop offset="1" stop-color="#7100C9"/></linearGradient><linearGradient id="paint2_linear" x1="3.55" y1="8" x2="10.41" y2="8.04" gradientUnits="userSpaceOnUse"><stop stop-color="#fff" stop-opacity=".1"/><stop offset="1" stop-color="#7100C9"/></linearGradient><linearGradient id="paint3_linear" x1="20.39" y1="16.5" x2="6.69" y2="16.76" gradientUnits="userSpaceOnUse"><stop stop-color="#fff" stop-opacity=".1"/><stop offset="1" stop-color="#7100C9"/></linearGradient><linearGradient id="paint4_linear" x1="23.03" y1="31.79" x2="15.99" y2="31.93" gradientUnits="userSpaceOnUse"><stop stop-color="#fff" stop-opacity=".1"/><stop offset="1" stop-color="#7100C9"/></linearGradient><linearGradient id="paint5_linear" x1="38.45" y1="33" x2="31.59" y2="33.16" gradientUnits="userSpaceOnUse"><stop stop-color="#fff" stop-opacity=".1"/><stop offset="1" stop-color="#7100C9"/></linearGradient><linearGradient id="paint6_linear" x1="30.2" y1="1" x2="11.91" y2="1.29" gradientUnits="userSpaceOnUse"><stop stop-color="#fff" stop-opacity=".1"/><stop offset="1" stop-color="#7100C9"/></linearGradient><linearGradient id="paint7_linear" x1="29.45" y1="1" x2="22.59" y2="1.13" gradientUnits="userSpaceOnUse"><stop stop-color="#fff" stop-opacity=".1"/><stop offset="1" stop-color="#7100C9"/></linearGradient><linearGradient id="paint8_linear" x1="25.6" y1="12" x2="16.67" y2="13.39" gradientUnits="userSpaceOnUse"><stop stop-color="#fff" stop-opacity=".1"/><stop offset="1" stop-color="#7100C9"/></linearGradient><linearGradient id="paint9_linear" x1="25.6" y1="16" x2="16.67" y2="17.39" gradientUnits="userSpaceOnUse"><stop stop-color="#fff" stop-opacity=".1"/><stop offset="1" stop-color="#7100C9"/></linearGradient><linearGradient id="paint10_linear" x1="19.15" y1="8" x2="16.87" y2="8.09" gradientUnits="userSpaceOnUse"><stop stop-color="#fff" stop-opacity=".1"/><stop offset="1" stop-color="#7100C9"/></linearGradient></defs></svg>