<svg width="70" height="70" viewBox="0 0 40 40" fill="none" xmlns="http://www.w3.org/2000/svg"><path d="M13.33 5h-5A3.33 3.33 0 005 8.33v5m30 0v-5A3.33 3.33 0 0031.67 5h-5m0 30h5A3.33 3.33 0 0035 31.67v-5m-30 0v5A3.33 3.33 0 008.33 35h5" stroke="#000" stroke-width="2" stroke-linecap="round" stroke-linejoin="round"/><path d="M13.33 5h-5A3.33 3.33 0 005 8.33v5m30 0v-5A3.33 3.33 0 0031.67 5h-5m0 30h5A3.33 3.33 0 0035 31.67v-5m-30 0v5A3.33 3.33 0 008.33 35h5" stroke="#2000E5" stroke-width="2" stroke-linecap="round" stroke-linejoin="round"/><path d="M13.33 5h-5A3.33 3.33 0 005 8.33v5m30 0v-5A3.33 3.33 0 0031.67 5h-5m0 30h5A3.33 3.33 0 0035 31.67v-5m-30 0v5A3.33 3.33 0 008.33 35h5" stroke="url(#paint0_linear)" stroke-width="2" stroke-linecap="round" stroke-linejoin="round"/><path d="M29 24v-8a2 2 0 00-1-1.73l-7-4a2 2 0 00-2 0l-7 4A2 2 0 0011 16v8a2 2 0 001 1.73l7 4a2 2 0 002 0l7-4A2 2 0 0029 24z" stroke="#2000E5" stroke-width="2" stroke-linecap="round" stroke-linejoin="round"/><path d="M29 24v-8a2 2 0 00-1-1.73l-7-4a2 2 0 00-2 0l-7 4A2 2 0 0011 16v8a2 2 0 001 1.73l7 4a2 2 0 002 0l7-4A2 2 0 0029 24z" stroke="url(#paint1_linear)" stroke-width="2" stroke-linecap="round" stroke-linejoin="round"/><path d="M11.27 14.96L20 20.01l8.73-5.05" stroke="#2000E5" stroke-width="2" stroke-linecap="round" stroke-linejoin="round"/><path d="M11.27 14.96L20 20.01l8.73-5.05" stroke="url(#paint2_linear)" stroke-width="2" stroke-linecap="round" stroke-linejoin="round"/><path d="M20 30.08V20" stroke="#2000E5" stroke-width="2" stroke-linecap="round" stroke-linejoin="round"/><path d="M20 30.08V20" stroke="url(#paint3_linear)" stroke-width="2" stroke-linecap="round" stroke-linejoin="round"/><defs><linearGradient id="paint0_linear" x1="37.26" y1="5" x2="2.96" y2="5.67" gradientUnits="userSpaceOnUse"><stop stop-color="#fff" stop-opacity=".1"/><stop offset="1" stop-color="#7100C9"/></linearGradient><linearGradient id="paint1_linear" x1="30.35" y1="10" x2="9.78" y2="10.36" gradientUnits="userSpaceOnUse"><stop stop-color="#fff" stop-opacity=".1"/><stop offset="1" stop-color="#7100C9"/></linearGradient><linearGradient id="paint2_linear" x1="30.04" y1="14.96" x2="10.17" y2="16.3" gradientUnits="userSpaceOnUse"><stop stop-color="#fff" stop-opacity=".1"/><stop offset="1" stop-color="#7100C9"/></linearGradient><linearGradient id="paint3_linear" x1="21.08" y1="20" x2="19.93" y2="20" gradientUnits="userSpaceOnUse"><stop stop-color="#fff" stop-opacity=".1"/><stop offset="1" stop-color="#7100C9"/></linearGradient></defs></svg>