<svg width="70" height="70" viewBox="0 0 40 40" fill="none" xmlns="http://www.w3.org/2000/svg"><path d="M17.86 1l.71 2.76V16.9" stroke="#2000E5" stroke-width="2" stroke-linecap="round"/><path d="M17.86 1l.71 2.76V16.9" stroke="url(#paint0_linear)" stroke-width="2" stroke-linecap="round"/><path d="M18.57 5.15h-5l-2.86 4.83L10 16.9" stroke="#2000E5" stroke-width="2" stroke-linecap="round"/><path d="M18.57 5.15h-5l-2.86 4.83L10 16.9" stroke="url(#paint1_linear)" stroke-width="2" stroke-linecap="round"/><path d="M18.57 5.15l4.29 1.38 5 6.22 2.14 6.9" stroke="#2000E5" stroke-width="2" stroke-linecap="round"/><path d="M18.57 5.15l4.29 1.38 5 6.22 2.14 6.9" stroke="url(#paint2_linear)" stroke-width="2" stroke-linecap="round"/><path d="M18.57 16.9l3.57.68L18.57 39" stroke="#2000E5" stroke-width="2" stroke-linecap="round"/><path d="M18.57 16.9l3.57.68L18.57 39" stroke="url(#paint3_linear)" stroke-width="2" stroke-linecap="round"/><path d="M18.57 16.9l-4.28-1.4-3.58 11.75h6.43" stroke="#2000E5" stroke-width="2" stroke-linecap="round"/><path d="M18.57 16.9l-4.28-1.4-3.58 11.75h6.43" stroke="url(#paint4_linear)" stroke-width="2" stroke-linecap="round"/><defs><linearGradient id="paint0_linear" x1="18.63" y1="1" x2="17.81" y2="1" gradientUnits="userSpaceOnUse"><stop stop-color="#fff" stop-opacity=".1"/><stop offset="1" stop-color="#7100C9"/></linearGradient><linearGradient id="paint1_linear" x1="19.22" y1="5.15" x2="9.42" y2="5.28" gradientUnits="userSpaceOnUse"><stop stop-color="#fff" stop-opacity=".1"/><stop offset="1" stop-color="#7100C9"/></linearGradient><linearGradient id="paint2_linear" x1="30.86" y1="5.15" x2="17.79" y2="5.35" gradientUnits="userSpaceOnUse"><stop stop-color="#fff" stop-opacity=".1"/><stop offset="1" stop-color="#7100C9"/></linearGradient><linearGradient id="paint3_linear" x1="22.41" y1="16.89" x2="18.33" y2="16.9" gradientUnits="userSpaceOnUse"><stop stop-color="#fff" stop-opacity=".1"/><stop offset="1" stop-color="#7100C9"/></linearGradient><linearGradient id="paint4_linear" x1="19.16" y1="15.51" x2="10.18" y2="15.63" gradientUnits="userSpaceOnUse"><stop stop-color="#fff" stop-opacity=".1"/><stop offset="1" stop-color="#7100C9"/></linearGradient></defs></svg>