<svg width="70" height="70" viewBox="0 0 40 40" fill="none" xmlns="http://www.w3.org/2000/svg"><path d="M33.5 25h-2L27 37h2l1.13-3h4.75L36 37h2l-4.5-12zm-2.63 7l1.63-4.34L34.13 32h-3.26z" fill="#2000E5"/><path d="M33.5 25h-2L27 37h2l1.13-3h4.75L36 37h2l-4.5-12zm-2.63 7l1.63-4.34L34.13 32h-3.26z" fill="url(#paint0_linear)"/><path d="M11.78 15.77l-2.1-2.07.03-.02a14.43 14.43 0 003.05-5.38h2.42V6.65H9.4V5H7.76v1.65H2v1.64h9.2a13 13 0 01-2.61 4.41c-.77-.85-1.4-1.78-1.9-2.76H5.04c.6 1.34 1.42 2.61 2.45 3.76l-4.18 4.13L4.47 19l4.12-4.12 2.56 2.56.63-1.67z" fill="#2000E5"/><path d="M11.78 15.77l-2.1-2.07.03-.02a14.43 14.43 0 003.05-5.38h2.42V6.65H9.4V5H7.76v1.65H2v1.64h9.2a13 13 0 01-2.61 4.41c-.77-.85-1.4-1.78-1.9-2.76H5.04c.6 1.34 1.42 2.61 2.45 3.76l-4.18 4.13L4.47 19l4.12-4.12 2.56 2.56.63-1.67z" fill="url(#paint1_linear)"/><path d="M4.56 27.96L8 23.04l4.91 3.44" stroke="#2000E5" stroke-width="2" stroke-linecap="round" stroke-linejoin="round"/><path d="M4.56 27.96L8 23.04l4.91 3.44" stroke="url(#paint2_linear)" stroke-width="2" stroke-linecap="round" stroke-linejoin="round"/><path d="M8 23.04l.65 3.12.65 3.12a9 9 0 0014.1 5.76" stroke="#2000E5" stroke-width="2" stroke-linecap="round" stroke-linejoin="round"/><path d="M8 23.04l.65 3.12.65 3.12a9 9 0 0014.1 5.76" stroke="url(#paint3_linear)" stroke-width="2" stroke-linecap="round" stroke-linejoin="round"/><path d="M37.4 14l-3.43 4.91-4.92-3.44" stroke="#2000E5" stroke-width="2" stroke-linecap="round" stroke-linejoin="round"/><path d="M37.4 14l-3.43 4.91-4.92-3.44" stroke="url(#paint4_linear)" stroke-width="2" stroke-linecap="round" stroke-linejoin="round"/><path d="M18.57 6.91a9 9 0 0114.1 5.77l1.3 6.23" stroke="#2000E5" stroke-width="2" stroke-linecap="round" stroke-linejoin="round"/><path d="M18.57 6.91a9 9 0 0114.1 5.77l1.3 6.23" stroke="url(#paint5_linear)" stroke-width="2" stroke-linecap="round" stroke-linejoin="round"/><defs><linearGradient id="paint0_linear" x1="38.83" y1="25" x2="26.25" y2="25.22" gradientUnits="userSpaceOnUse"><stop stop-color="#fff" stop-opacity=".1"/><stop offset="1" stop-color="#7100C9"/></linearGradient><linearGradient id="paint1_linear" x1="16.17" y1="5" x2="1.1" y2="5.28" gradientUnits="userSpaceOnUse"><stop stop-color="#fff" stop-opacity=".1"/><stop offset="1" stop-color="#7100C9"/></linearGradient><linearGradient id="paint2_linear" x1="13.28" y1="26.74" x2="7.59" y2="22.92" gradientUnits="userSpaceOnUse"><stop stop-color="#fff" stop-opacity=".1"/><stop offset="1" stop-color="#7100C9"/></linearGradient><linearGradient id="paint3_linear" x1="25.17" y1="35.06" x2="6.27" y2="23.3" gradientUnits="userSpaceOnUse"><stop stop-color="#fff" stop-opacity=".1"/><stop offset="1" stop-color="#7100C9"/></linearGradient><linearGradient id="paint4_linear" x1="37.78" y1="14.26" x2="32.08" y2="10.43" gradientUnits="userSpaceOnUse"><stop stop-color="#fff" stop-opacity=".1"/><stop offset="1" stop-color="#7100C9"/></linearGradient><linearGradient id="paint5_linear" x1="39.18" y1="14.02" x2="20.28" y2="2.26" gradientUnits="userSpaceOnUse"><stop stop-color="#fff" stop-opacity=".1"/><stop offset="1" stop-color="#7100C9"/></linearGradient></defs></svg>