<svg width="70" height="70" viewBox="0 0 40 40" fill="none" xmlns="http://www.w3.org/2000/svg"><path d="M22.5 28.5a1.67 1.67 0 001.67 1.67h10l3.33 3.33V20.17a1.67 1.67 0 00-1.67-1.67H24.17a1.67 1.67 0 00-1.67 1.67v8.33z" stroke="#2000E5" stroke-width="1.67" stroke-linecap="round" stroke-linejoin="round"/><path d="M22.5 28.5a1.67 1.67 0 001.67 1.67h10l3.33 3.33V20.17a1.67 1.67 0 00-1.67-1.67H24.17a1.67 1.67 0 00-1.67 1.67v8.33z" stroke="url(#paint0_linear)" stroke-width="1.67" stroke-linecap="round" stroke-linejoin="round"/><path d="M28 24.5h7" stroke="#2000E5" stroke-linecap="round" stroke-linejoin="round"/><path d="M28 24.5h7" stroke="url(#paint1_linear)" stroke-linecap="round" stroke-linejoin="round"/><path d="M26 22h9" stroke="#2000E5" stroke-linecap="round" stroke-linejoin="round"/><path d="M26 22h9" stroke="url(#paint2_linear)" stroke-linecap="round" stroke-linejoin="round"/><path d="M26 27h9" stroke="#2000E5" stroke-linecap="round" stroke-linejoin="round"/><path d="M26 27h9" stroke="url(#paint3_linear)" stroke-linecap="round" stroke-linejoin="round"/><path d="M17.5 16.5a1.67 1.67 0 01-1.67 1.67h-10L2.5 21.5V8.17A1.67 1.67 0 014.17 6.5h11.66a1.67 1.67 0 011.67 1.67v8.33z" stroke="#2000E5" stroke-width="1.67" stroke-linecap="round" stroke-linejoin="round"/><path d="M17.5 16.5a1.67 1.67 0 01-1.67 1.67h-10L2.5 21.5V8.17A1.67 1.67 0 014.17 6.5h11.66a1.67 1.67 0 011.67 1.67v8.33z" stroke="url(#paint4_linear)" stroke-width="1.67" stroke-linecap="round" stroke-linejoin="round"/><path d="M8.5 11c.12-.33.36-.61.67-.8a1.58 1.58 0 011.97.33c.23.27.36.62.36.97 0 1-1.54 1.5-1.54 1.5" stroke="#2000E5" stroke-linecap="round" stroke-linejoin="round"/><path d="M8.5 11c.12-.33.36-.61.67-.8a1.58 1.58 0 011.97.33c.23.27.36.62.36.97 0 1-1.54 1.5-1.54 1.5" stroke="url(#paint5_linear)" stroke-linecap="round" stroke-linejoin="round"/><path d="M9.95 15h0" stroke="#2000E5" stroke-linecap="round" stroke-linejoin="round"/><path d="M9.95 15h0" stroke="url(#paint6_linear)" stroke-linecap="round" stroke-linejoin="round"/><defs><linearGradient id="paint0_linear" x1="21.37" y1="18.5" x2="38.52" y2="18.83" gradientUnits="userSpaceOnUse"><stop stop-color="#fff" stop-opacity=".1"/><stop offset="1" stop-color="#7100C9"/></linearGradient><linearGradient id="paint1_linear" x1="35.53" y1="24.5" x2="27.67" y2="25.57" gradientUnits="userSpaceOnUse"><stop stop-color="#fff" stop-opacity=".1"/><stop offset="1" stop-color="#7100C9"/></linearGradient><linearGradient id="paint2_linear" x1="35.68" y1="22" x2="25.69" y2="23.75" gradientUnits="userSpaceOnUse"><stop stop-color="#fff" stop-opacity=".1"/><stop offset="1" stop-color="#7100C9"/></linearGradient><linearGradient id="paint3_linear" x1="35.68" y1="27" x2="25.69" y2="28.75" gradientUnits="userSpaceOnUse"><stop stop-color="#fff" stop-opacity=".1"/><stop offset="1" stop-color="#7100C9"/></linearGradient><linearGradient id="paint4_linear" x1="18.63" y1="6.5" x2="1.48" y2="6.83" gradientUnits="userSpaceOnUse"><stop stop-color="#fff" stop-opacity=".1"/><stop offset="1" stop-color="#7100C9"/></linearGradient><linearGradient id="paint5_linear" x1="11.73" y1="10" x2="8.3" y2="10.07" gradientUnits="userSpaceOnUse"><stop stop-color="#fff" stop-opacity=".1"/><stop offset="1" stop-color="#7100C9"/></linearGradient><linearGradient id="paint6_linear" x1="9.96" y1="15" x2="9.95" y2="15" gradientUnits="userSpaceOnUse"><stop stop-color="#fff" stop-opacity=".1"/><stop offset="1" stop-color="#7100C9"/></linearGradient></defs></svg>